<?xml version="1.0" encoding="UTF-8" standalone="no"?>
<!-- Uploaded to: SVG Repo, www.svgrepo.com, Generator: SVG Repo Mixer Tools -->

<svg
   fill="#000000"
   height="436.36304"
   width="799.99884"
   version="1.1"
   id="Layer_1"
   viewBox="0 0 329.99952 179.99975"
   xml:space="preserve"
   sodipodi:docname="arrow.svg"
   xmlns:inkscape="http://www.inkscape.org/namespaces/inkscape"
   xmlns:sodipodi="http://sodipodi.sourceforge.net/DTD/sodipodi-0.dtd"
   xmlns="http://www.w3.org/2000/svg"
   xmlns:svg="http://www.w3.org/2000/svg"><defs
   id="defs1" /><sodipodi:namedview
   id="namedview1"
   pagecolor="#ffffff"
   bordercolor="#000000"
   borderopacity="0.25"
   inkscape:showpageshadow="2"
   inkscape:pageopacity="0.0"
   inkscape:pagecheckerboard="0"
   inkscape:deskcolor="#d1d1d1" />&#10;<path
   id="XMLID_27_"
   d="m 15,104.99975 h 263.787 l -49.394,49.394 c -5.858,5.857 -5.858,15.355 0,21.213 2.929,2.928 6.768,4.393 10.607,4.393 3.839,0 7.678,-1.465 10.606,-4.394 l 75,-75 c 5.858,-5.857002 5.858,-15.355002 0,-21.213002 l -75,-74.9999998 c -5.857,-5.857 -15.355,-5.857 -21.213,0 -5.858,5.8569998 -5.858,15.3549998 0,21.2129998 l 49.394,49.394 H 15 c -8.284,0 -15,6.716 -15,15 0,8.284 6.716,15.000002 15,15.000002 z"
   inkscape:export-filename="arrowSimple.svg"
   inkscape:export-xdpi="96"
   inkscape:export-ydpi="96" />&#10;</svg>
