<!DOCTYPE svg PUBLIC "-//W3C//DTD SVG 20010904//EN" "http://www.w3.org/TR/2001/REC-SVG-20010904/DTD/svg10.dtd">
<svg version="1.0" xmlns="http://www.w3.org/2000/svg" width="581px" height="424px" viewBox="0 0 5810 4240" preserveAspectRatio="xMidYMid meet">
<g id="layer1" fill="#000000" stroke="none">
 <path d="M2423 4089 c-46 -9 -55 -15 -82 -57 l-30 -47 -11 -254 c-6 -140 -13 -258 -17 -264 -3 -6 -311 -7 -869 -2 l-864 8 -90 -33 c-84 -30 -94 -37 -148 -99 -32 -36 -80 -101 -106 -144 l-48 -77 -3 -905 c-4 -1037 -8 -977 85 -1129 50 -82 57 -89 164 -158 l111 -73 890 -5 890 -5 8 -210 c9 -250 20 -319 54 -343 13 -9 52 -38 86 -64 34 -26 67 -48 73 -48 6 0 69 24 140 53 104 43 173 82 359 203 127 83 354 221 505 309 151 87 489 283 750 435 261 152 624 354 805 450 376 197 425 234 492 365 34 67 35 72 29 148 -6 69 -14 92 -66 198 l-60 119 -328 164 c-307 153 -360 184 -837 487 -662 419 -1344 834 -1506 915 -127 63 -130 64 -226 68 -54 3 -121 0 -150 -5z"/>
 </g>

</svg>